<?xml version="1.0" encoding="UTF-8"?><svg id="uuid-318fd3fe-856b-40fa-80ae-d7382034a120" xmlns="http://www.w3.org/2000/svg" viewBox="0 0 522 493.8"><path d="M255,0c.3,2.6.7,5.2.7,7.9-.1,54.2-.5,108.3-.5,162.5,0,70.8.2,141.7.4,212.5,0,35.5.2,71,.2,106.5,0,1.3-.2,2.6-.2,3.9-.7.2-1.2.5-1.6.5-21.8-.1-43.7.6-65.5-.7-11-.7-22.3-4-32.6-8.2-12.6-5.2-24.4-12.4-36.6-18.9-1.2-.6-2.2-1.5-3.2-2.4-12.1-12.3-25.9-23.2-34.3-38.8-4.6-8.6-8.6-17.6-11.5-26.9-4-12.9-7.3-26.1-9.5-39.4-1.5-8.9-.6-18.3-.3-27.4.2-4.9-1.5-6.1-6.3-6-14.8.4-29.7.3-44.5.2-3.3,0-6.5-.8-9.8-1.2,0-54,0-108,0-162,4.5.2,9,.2,13.5.6,4.1.3,5.4-1.2,5.4-5.4-.1-34.8-.2-69.6,0-104.5,0-6.1-1.1-10.8-6.1-14.7-3.7-2.9-6.2-6.8-6.1-12C7,15.8,16.8,3,27,0h6c7.7,2.5,12.5,8.2,16.5,14.8,3.6,6,1.8,14.2-2.7,18.7-2.3,2.2-4.8,4.2-6.7,6.7-1.3,1.7-2.7,4-2.7,6.1-.2,37.5,0,75-.2,112.5,0,3,1,4.2,4.1,4.1,5.2-.1,10.3-.2,15.5,0,3.4.1,4.2-1.2,4.3-4.4.4-9.7,1.1-19.4,1.8-29.1.7-10.7,4.5-20.6,7.5-30.8,4.4-15.3,12.2-28.7,22-40.3,13.5-15.9,27.7-31.9,47.7-40.4,9.4-4,18.9-7.8,28.5-11.4,3.8-1.4,7.8-2.1,11.7-3.2,2.7-.8,5.4-2.5,8.1-2.5,20.2-.2,40.3,0,60.5-.2,1.7,0,3.5-.5,5.2-.8.3,0,.7,0,1,0ZM235.4,241c-9.6,10.5-17,22.1-30,27.8-12.6,5.5-25.5,7.3-39.1,5.5-13.7-1.8-25.9-7.1-36.2-16.6-27.1-25.2-29.3-66.2-4.8-95.2,11.7-13.8,26.9-21.4,44.6-22.8,28.2-2.1,49.6,10.3,65.8,34.2V30.6h-51.9c.4,6.7,1.1,12.5,1.1,18.3,0,1.9-1,4.2-2.4,5.5-2.8,2.7-6.2,3.5-10.1,1.7-3.8-1.8-4.8-4.8-4.4-8.6.4-4.3.7-8.7,1-13.3-1.4.2-1.9.2-2.3.3-45.6,16-77.8,55.6-78.5,104.7-1,67.1-.6,134.3-.3,201.5,0,11.4,1.6,23,4.4,34,7.2,28.7,22.2,52.6,47,69.6,29.3,20.1,62.1,22.8,96,19.6v-65.2h-64.5c-1-14.4-2-28.2-3-42.6h67.5v-115.1ZM176,166c-23.4-.2-42,18.8-42.3,43.3-.3,21.3,19.1,40.7,40.9,41,24,.2,43.7-18.7,43.9-42.4.2-22.9-18.8-41.7-42.5-41.8ZM22.2,297.6c10.9-.5,21.5-1,32.1-1.4,4-.2,5-2.4,5-5.9,0-11.8.2-23.6.3-35.4,0-21.1,0-42.2,0-63.4H22.2v106.2Z"/><path d="M507.6,162.6c-3,.2-4.5-.8-4.5-4.2.1-36.9,0-73.8.2-110.7,0-2.1,1.3-4.7,2.9-6.2,5.3-5.3,10.5-10.4,8.9-18.8-.4-2.1-.7-4.4-1.8-6C508.5,9.6,503.4,2.9,495,0h-6c-10.1,3-19,14.1-17.9,23.8.5,4.1,3.2,8.9,6.4,11.6,5.9,5.1,7.5,10.7,7.5,18.3-.4,34.3-.3,68.7,0,103,0,4.8-1.2,6.6-6.1,6.2-4.5-.4-9-.2-13.5,0-3.3.2-4.4-1.2-4.3-4.4.2-4,0-8,0-12,.2-12.2-1.6-24.2-5.7-35.7-3.8-10.9-7.1-22.1-12.4-32.3-4.6-9-11.2-17-17.4-25-3.7-4.7-8.6-8.4-12.6-12.8-10.5-11.6-23.4-19.5-37.4-26.1-9.6-4.5-19.9-6.9-29.9-10.2-21.6-7.2-43.4-1.5-64.9-3.5C278.2.6,275.6.3,273,0h-1c-.3,2.1-.8,4.3-.8,6.4,0,19.5.2,39,.3,58.5,0,16.1,0,32.3,0,48.8,45.2-8.2,75.8-37.6,104.1-70.4,1.1.8,2.3,1.7,3.5,2.5,11.7,7.3,22,16.2,30.7,26.9.7.8,1.9,1.6,2.3,2.6.6.7,1.1,1.4,1.6,2.1.3.5.6.9.8,1.4.2.3.3.7.5,1,0,0,0,0,0,0,0,0,.2.2.2.3,0,0,0,0,0,.1.3,0,.4.3.4.6,0,0,0,0,0,0,1.2,2.2,2.4,4.3,3.6,6.5,8.7,15.7,14.4,32.3,14.5,50.3.3,69.3.6,138.7.2,208-.2,31.3-11.4,59.2-32.5,82.1-22.7,24.7-51.4,37.2-85.2,37.4-14.8,0-29.6,0-44.5,0v28.4c.8,0,1.6.2,2.4.2,17.3,0,34.7.1,52,0,5,0,10.1-.3,14.8-1.5,9.8-2.4,19.6-5.2,29.1-8.6,13.4-4.8,25.4-12.4,36.4-21.1,8.3-6.6,15.6-14.6,22.7-22.5,4.6-5.2,9.2-10.8,12-17.1,5.9-13.3,10.7-27,15.6-40.7,1.2-3.4,1.1-7.2,1.6-10.8,1-6.9,2.4-13.7,2.9-20.6.5-6.8.1-13.7.2-20.5,0-1.7.4-3.5.5-4.6,20.4-.6,40.2-1.1,60-1.7v-162c-4.8.2-9.6.3-14.4.6ZM499.7,296.5c-10.7,0-21.1,0-31.5,0-4.2,0-5.8-2.1-5.8-6.3,0-30-.1-59.9-.2-89.9,0-3,0-5.9,0-9.2h37.5v105.3ZM493.6,31.2c-5.7,0-10.7-4.7-10.8-10.2,0-5.8,5-11,10.6-11,5.6,0,11.3,5.4,11.3,10.5,0,5.2-5.7,10.7-11.2,10.7Z"/><path d="M407.2,219.6c1.4,25.4-23.7,55.8-56.4,54.6-28.5-1.1-51.1-24.1-50.8-53.4.4-32.1,24.1-56.8,54.3-56.7,27.2,0,54.5,24.4,52.9,55.5ZM370.2,205.4c0-9.3-9-17.3-19.1-17.2-9.3.1-17,8.4-16.9,18.1.1,9.2,9,18,18,17.9,10.1,0,18.1-8.4,18-18.8Z"/><path d="M315.8,145.4c-2.5-4.4-5.6-9.8-8.9-15.6.9-.5,1.9-1.2,2.9-1.5,15.6-4.8,31-10,46.8-14.1,16-4.2,31,.8,45.5,7.2,4.6,2,8.9,4.5,13.3,6.8-3,3.9-5.8,7.7-8.8,11.6-14.6-5-29.9-7.4-45.4-4.8-15.2,2.6-30,6.8-45.4,10.3Z"/><path d="M271.6,360.8v-22.2c17.7-1.1,35.2-2.2,53.1-3.3-1.7,9.6-7,16.3-15.5,20.2-12,5.5-24.7,5.7-37.6,5.3Z"/><path d="M183.7,102.3c0,5.3.1,10.6-.1,15.8,0,1-1.6,2.5-2.7,2.7-3.4.5-6.9.6-10.8.8v-19.3h13.6Z"/><path d="M185.7,78.6c0,6-2.8,9-8.7,9.1-6,.1-8.9-2.6-9-8.7,0-5.4,3.1-8.9,8.3-9,5.3,0,9.3,3.6,9.4,8.6Z"/><path d="M147.8,362.8c0,6.1-1.2,7.2-8.2,7.3-6.5,0-8.6-1.9-8.6-8,0-6.6,2.5-9.4,8-9.4,6.6,0,8.7,2.4,8.7,10.2Z"/><path d="M147.6,331.5c.2,7-3.2,8.3-8.4,8.4-5.8,0-7.5-2.3-7.3-9.3.2-5.6,1.4-6.6,7.6-6.4,6.2.2,8.4,2.1,8.2,7.3Z"/><path d="M138,300.9c6.4,0,9.3,1.8,9.4,6,0,4.6-3.5,8.4-7.8,8.3-4.4,0-8.3-3.8-8.3-8,0-4.8,1.6-6.2,6.8-6.3Z"/><path d="M131.2,283.8c.1-4.5,1.9-5.9,7.2-5.8,6.4.1,8.8,1.8,8.7,6,0,4.5-4,8.1-8.4,7.9-4.5-.2-7.7-3.7-7.6-8Z"/></svg>